HIERARCHY
ROOT SpineBase
{
  OFFSET 0.000000 0.000000 0.000000
  CHANNELS 6 Xposition Yposition Zposition Zrotation Xrotation Yrotation
  JOINT SpineMid
  {
    OFFSET 0.000000 31.643409 0.000000
    CHANNELS 3 Zrotation Xrotation Yrotation
    JOINT SpineShoulder
    {
      OFFSET 0.021635 23.520911 -0.638888
      CHANNELS 3 Zrotation Xrotation Yrotation
      JOINT Neck
      {
        OFFSET 0.024385 7.780499 -0.512279
        CHANNELS 3 Zrotation Xrotation Yrotation
        JOINT Head
        {
          OFFSET -7.395762 13.122612 1.061043
          CHANNELS 3 Zrotation Xrotation Yrotation
          End Site
          {
            OFFSET 0 0 0
          }
        }
      }
      JOINT ShoulderLeft
      {
        OFFSET -14.928929 -5.264138 8.959633
        CHANNELS 3 Zrotation Xrotation Yrotation
        JOINT ElbowLeft
        {
          OFFSET -3.339802 -27.792380 1.301910
          CHANNELS 3 Zrotation Xrotation Yrotation
          JOINT WristLeft
          {
            OFFSET -1.980166 -21.292062 -10.672332
            CHANNELS 3 Zrotation Xrotation Yrotation
            JOINT HandLeft
            {
              OFFSET -0.196798 -6.737758 -2.686727
              CHANNELS 3 Zrotation Xrotation Yrotation
              JOINT HandTipLeft
              {
                OFFSET -0.315124 -7.476412 -2.425187
                CHANNELS 3 Zrotation Xrotation Yrotation
                End Site
                {
                  OFFSET 0 0 0
                }
              }
              JOINT ThumbLeft
              {
                OFFSET -3.341733 -0.285840 -3.097161
                CHANNELS 3 Zrotation Xrotation Yrotation
                End Site
                {
                  OFFSET 0 0 0
                }
              }
            }
          }
        }
      }
      JOINT ShoulderRight
      {
        OFFSET 12.296711 -3.388311 -9.356957
        CHANNELS 3 Zrotation Xrotation Yrotation
        JOINT ElbowRight
        {
          OFFSET 7.364979 -26.056509 -6.663356
          CHANNELS 3 Zrotation Xrotation Yrotation
          JOINT WristRight
          {
            OFFSET -2.183399 -20.000078 -8.746515
            CHANNELS 3 Zrotation Xrotation Yrotation
            JOINT HandRight
            {
              OFFSET -3.456454 -6.488445 -1.950241
              CHANNELS 3 Zrotation Xrotation Yrotation
              JOINT HandTipRight
              {
                OFFSET -2.543732 -7.454343 -1.649917
                CHANNELS 3 Zrotation Xrotation Yrotation
                End Site
                {
                  OFFSET 0 0 0
                }
              }
              JOINT ThumbRight
              {
                OFFSET 2.212090 -0.784927 -2.037347
                CHANNELS 3 Zrotation Xrotation Yrotation
                End Site
                {
                  OFFSET 0 0 0
                }
              }
            }
          }
        }
      }
    }
  }
  JOINT HipLeft
  {
    OFFSET -6.400836 0.037848 0.318093
    CHANNELS 3 Zrotation Xrotation Yrotation
    JOINT KneeLeft
    {
      OFFSET 5.052554 -37.791334 3.144724
      CHANNELS 3 Zrotation Xrotation Yrotation
      JOINT AnkleLeft
      {
        OFFSET 5.327672 -37.890766 9.785217
        CHANNELS 3 Zrotation Xrotation Yrotation
        JOINT FootLeft
        {
          OFFSET -1.905602 -8.273771 -5.019401
          CHANNELS 3 Zrotation Xrotation Yrotation
          End Site
          {
            OFFSET 0 0 0
          }
        }
      }
    }
  }
  JOINT HipRight
  {
    OFFSET 6.927625 1.736570 -7.303380
    CHANNELS 3 Zrotation Xrotation Yrotation
    JOINT KneeRight
    {
      OFFSET 12.725895 -34.732536 -3.797796
      CHANNELS 3 Zrotation Xrotation Yrotation
      JOINT AnkleRight
      {
        OFFSET 12.117864 -37.132874 6.638088
        CHANNELS 3 Zrotation Xrotation Yrotation
        JOINT FootRight
        {
          OFFSET -5.237433 -4.155377 -12.154873
          CHANNELS 3 Zrotation Xrotation Yrotation
          End Site
          {
            OFFSET 0 0 0
          }
        }
      }
    }
  }
}
MOTION
Frames: 9
Frame Time: 0.033333
-30.999474 86.675006 323.620042 7.238597 3.955457 30.267261 -1.104425 -0.495177 -30.309307 -0.543979 -0.714831 0.236457 -14.724640 11.145968 8.717126 0.000000 0.000000 0.000000 -4.866703 -15.723195 1.354488 0.405460 -10.304004 -0.196474 1.234429 9.282566 -2.670750 -4.977638 0.278318 2.756245 0.000000 0.000000 0.000000 0.000000 0.000000 0.000000 -169.748625 53.423321 -161.500827 114.107160 56.577766 36.880610 -11.690318 -45.845710 -128.882985 33.450227 6.964613 -98.029740 0.000000 0.000000 0.000000 0.000000 0.000000 0.000000 -12.663832 2.384207 -30.861543 12.782623 -5.366011 1.954826 -5.797915 12.622375 -3.620090 0.000000 0.000000 0.000000 -12.625752 7.036808 -28.053439 9.588411 -7.915308 -2.471407 -4.768206 3.996138 6.790280 0.000000 0.000000 0.000000
-31.289119 86.823788 323.442095 7.030627 3.724170 28.448655 -0.770771 -0.478094 -28.470654 -0.385166 -0.756206 0.256721 -15.225527 12.067797 9.337959 0.000000 0.000000 0.000000 -5.176639 -15.196127 1.260113 0.350453 -8.990106 -0.241623 2.705127 8.388604 -3.500166 -7.147194 1.163148 3.753038 0.000000 0.000000 0.000000 0.000000 0.000000 0.000000 -169.793866 53.238927 -161.715747 112.837797 56.889367 46.578954 -22.898158 -44.803979 -150.596826 22.680512 10.196281 -80.315708 0.000000 0.000000 0.000000 0.000000 0.000000 0.000000 -12.612548 2.736439 -28.992971 13.818643 -6.247445 2.158027 -11.046166 20.947976 -1.634890 0.000000 0.000000 0.000000 -12.355395 8.199115 -25.606665 10.367324 -9.786475 -2.868735 -3.859707 3.085056 4.900145 0.000000 0.000000 0.000000
-31.732444 87.366891 323.374788 6.902595 3.707273 27.525642 -0.300617 -0.425970 -27.538607 -0.171459 -0.793621 0.290590 -17.269669 12.021518 9.704078 0.000000 0.000000 0.000000 -6.404710 -17.880358 1.365734 1.881452 -2.551292 -1.592155 3.242820 7.886181 -3.405109 -8.174099 -0.344504 4.030200 0.000000 0.000000 0.000000 0.000000 0.000000 0.000000 -168.360139 52.974869 -164.430831 112.815104 65.780774 70.720591 -47.797792 -32.923025 -178.021892 7.623827 -13.034785 -69.950574 0.000000 0.000000 0.000000 0.000000 0.000000 0.000000 -12.433564 3.215919 -27.993994 14.328353 -7.065401 2.293161 -17.358548 28.713926 1.849712 0.000000 0.000000 0.000000 -11.783595 8.977416 -24.269858 10.464731 -11.472605 -3.212463 -4.111515 3.604381 4.813330 0.000000 0.000000 0.000000
-32.249324 88.321886 323.426663 6.952728 3.743978 27.362674 0.101622 -0.380492 -27.370384 -0.068603 -0.915871 0.325938 -18.759698 12.216672 10.072632 0.000000 0.000000 0.000000 -6.549563 -16.413714 1.192097 2.249999 -2.081041 -2.009980 3.357122 6.571742 -3.152638 -8.921587 0.577373 4.284273 0.000000 0.000000 0.000000 0.000000 0.000000 0.000000 -166.366063 51.769773 -167.874946 43.703143 79.113686 -176.638947 -74.898649 4.052882 157.234824 -9.295108 -27.179680 -12.922503 0.000000 0.000000 0.000000 0.000000 0.000000 0.000000 -12.012380 3.696694 -27.724640 13.983126 -7.554792 2.286303 -24.137767 33.856819 6.604579 0.000000 0.000000 0.000000 -11.292545 9.113665 -24.048551 10.015777 -12.077858 -3.345522 -4.150184 3.810775 4.870745 0.000000 0.000000 0.000000
-32.800097 89.618352 323.600949 6.930630 3.377639 28.026682 0.143173 -0.532724 -27.999078 0.038034 -0.837961 0.336888 -20.599695 11.338060 9.630613 0.000000 0.000000 0.000000 -5.780692 -12.124442 0.868651 1.917631 -5.859074 -1.703426 2.323706 4.721964 -2.352549 -7.462501 5.406401 3.556256 0.000000 0.000000 0.000000 0.000000 0.000000 0.000000 -163.993443 50.241577 -171.691363 3.704296 58.425822 -99.316384 -89.610130 43.528576 155.239758 -13.979746 -29.404396 -6.861268 0.000000 0.000000 0.000000 0.000000 0.000000 0.000000 -10.975745 4.468356 -28.194655 12.858026 -7.709418 2.121602 -30.733613 39.908765 11.560092 0.000000 0.000000 0.000000 -10.501143 9.028197 -24.870309 9.175839 -11.742254 -3.298740 -3.864003 3.819954 4.516147 0.000000 0.000000 0.000000
-33.286820 91.201434 323.821463 6.842331 2.603388 29.105912 0.197096 -0.476572 -29.037400 0.185569 -0.514033 0.327024 -21.609476 9.857562 8.597735 0.000000 0.000000 0.000000 -5.003997 -8.111969 0.498262 1.769291 -9.716566 -1.389018 0.452029 2.792685 -1.069230 -6.960499 10.960473 3.226627 0.000000 0.000000 0.000000 0.000000 0.000000 0.000000 -160.674058 48.459664 -176.966664 3.223440 46.297318 -81.216266 -94.501792 51.727957 174.550948 -22.639210 -27.951549 -17.468203 0.000000 0.000000 0.000000 0.000000 0.000000 0.000000 -9.583877 5.326292 -29.060759 11.358243 -7.401967 1.870406 -32.028285 40.902059 12.845277 0.000000 0.000000 0.000000 -9.769591 8.835513 -26.240407 8.469454 -10.410887 -2.981752 -3.483635 3.486995 3.831165 0.000000 0.000000 0.000000
-33.741782 92.800029 324.150657 6.590924 1.459496 30.326758 0.377161 -0.300986 -30.208744 0.468161 -0.115795 0.315584 -22.897812 8.755768 7.819237 0.000000 0.000000 0.000000 -4.318393 -3.528455 -0.011235 1.120868 -14.644522 -0.568635 -0.520158 1.588954 -0.470591 -7.376455 16.134892 3.484531 0.000000 0.000000 0.000000 0.000000 0.000000 0.000000 -158.747969 47.031884 179.748372 0.900278 42.722434 -76.477053 -93.070712 42.264024 -169.051491 -27.659348 -24.492248 -17.774112 0.000000 0.000000 0.000000 0.000000 0.000000 0.000000 -7.712209 6.136569 -30.081201 9.561918 -6.750656 1.576763 -29.162869 38.335549 11.044933 0.000000 0.000000 0.000000 -8.779759 8.447696 -27.888710 7.375429 -8.440891 -2.541132 -2.858298 2.901843 3.264042 0.000000 0.000000 0.000000
-33.764969 93.891583 323.883438 6.624962 1.087205 31.303228 0.172902 -0.333474 -31.163204 0.537349 0.271175 0.288325 -23.779587 7.714779 7.178222 0.000000 0.000000 0.000000 -3.898583 0.344834 -0.548583 0.540347 -19.197551 0.341270 -1.984138 -0.835504 0.447320 -5.883315 22.515027 2.863076 0.000000 0.000000 0.000000 0.000000 0.000000 0.000000 -157.578208 46.515810 177.914315 -1.385019 41.677600 -75.275290 -84.821387 28.186767 -151.896432 -29.631656 -17.567609 -18.654469 0.000000 0.000000 0.000000 0.000000 0.000000 0.000000 -7.311061 5.786232 -31.069079 8.396505 -5.511718 1.372151 -21.620295 32.046823 6.023330 0.000000 0.000000 0.000000 -9.133961 7.232968 -29.491400 6.749768 -5.953101 -1.934384 -2.297153 2.418680 2.682541 0.000000 0.000000 0.000000
-33.600708 94.743238 323.331900 6.561058 1.102372 32.711437 -0.175515 -0.327496 -32.575046 0.475792 0.624276 0.247699 -24.519463 7.189444 7.102188 0.000000 0.000000 0.000000 -3.769311 3.395161 -1.020722 0.453542 -22.784600 1.165779 -2.694754 -2.101691 0.826448 -5.881461 27.668213 3.120218 0.000000 0.000000 0.000000 0.000000 0.000000 0.000000 -158.574250 48.038898 -179.837180 -7.185260 50.001918 -84.515880 -71.806310 8.736913 -136.987527 -26.657399 -6.496280 -3.608605 0.000000 0.000000 0.000000 0.000000 0.000000 0.000000 -7.404847 4.924057 -32.576236 7.564795 -4.097918 1.232234 -15.996419 24.862227 2.946962 0.000000 0.000000 0.000000 -9.785744 5.568098 -31.660279 6.156116 -3.273600 -1.235177 -3.232672 3.588822 4.255732 0.000000 0.000000 0.000000
